<?xml version="1.0" encoding="UTF-8"?>
<svg xmlns="http://www.w3.org/2000/svg" version="1.1" viewBox="0 0 860 860">
  <defs>
    <style>
      .cls-1 {
        fill: #000;
      }

      .cls-1, .cls-2 {
        stroke-width: 0px;
      }

      .cls-2 {
        fill: #fff;
      }
    </style>
  </defs>
  <g id="Layer_1" data-name="Layer 1">
    <path class="cls-1" d="M323.7,429.3c-6.3.9-11.8,1.8-17.4,2.5-16.5,2-36.9,24.2-40,44.6-4.7,31.4,16.6,64.1,50.2,75.6,19.4,6.7,45.4,3.9,58.6-2.6s20.4-11.5,29.3-26.8,8.1-47.2-.3-71c-14.6-49.8-62.6-82.8-116.7-74.5-22,3.4-42.3,9.5-45,10.2,0-6.2-.1-3.6.1-9,0-1,1.7-2.4,2.9-2.8,23.3-7.8,53.1-12.7,71.6-11.3,45.5,3.6,71.3,31.2,87,51.3s21,37.5,23.9,58.4c2.3,16.3.3,32.5-3.8,48.4-1,3.8-10.5,30.5-29.8,43.2s-25.8,12.9-47.8,12.3-67.1-1.9-80.2-2.7c-15.1-1-53.8-3.3-126.8,15.7-7.3,2.1-36.9,13.4-39,9-2.4-4.9,10.1-14.3,23-20,27-12,55-21,103-26s39.3-2.9,51.4-2.9c-1.5-1.6-3.2-3.6-5-5.5-17.6-18-27.1-39.1-25.5-64.8,1.9-28.9,20.5-55.3,46.2-63.7,7-2.3,14.6-3,22-3.2,7-.2,7.9,1.4,8.1,8.3,0,2.4,0,4.9,0,7.1Z"/>
    <path class="cls-1" d="M200,532.3c-5.6-2.7-9.9-6.1-9.3-13.5-1.6.2-2.3.1-2.9.4-19.1,8.2-37.5,3.8-55.7-3.3-1.4-.5-2.5-1.9-3.7-2.9,1.2-1,2.2-2.2,3.5-3,1.1-.7,2.5-1,3.6-1.7,5.8-3.3,10.4-7.8,12.6-14.3,1.6-4.9,0-6.3-5.1-7.1-8.5-1.3-17.1-2.4-25.3-5-32.8-10.4-60.3-28.9-81.5-56.3-6.1-7.9-6-10.5,1.7-16.6,20-15.5,42.9-25.2,67.2-31.9,8.2-2.3,16.9-2.8,25.3-4.2.3-1.8.4-3.8,1-5.7,4.6-14.3,11.8-27.3,22.6-37.5,4.5-4.2,9.4-6.6,15.4-8.7,4.1-1.5,10-2,15-1.5-5-14.1-18-19.5-29.8-19.3-23.9.4-47.2,15.8-44.5,49.4.1,1.5.7,6.8.7,6.8,0,0-5,1-7.5,1.6-30.7,8.3-58.4,23.1-84.9,40.1-.5.3-.9.6-1.4,1-6,1-10.5,6.1-10.5,12.3s3.8,10.4,8.9,12c7.6,11.5,17.1,25.2,23.8,32.5,8.3,9,25.3,21.2,31.1,24.3,11.5,6.2,32.2,14.1,47.7,20.9-8,3.3-15.7,6-23,9.8-5.7,3-7.8,8-6.5,12.8,1.6,5.6,6.1,7.2,11.2,7.4,8.1.3,16.5-.8,24.4.7,15.5,3,30.6,7.9,46,11.1,8.4,1.8,17.1,2,25.7,2.6,4.4.3,5.6-3.3,6.8-6.7,1.1-3.2-.1-5.3-2.8-6.6Z"/>
    <circle class="cls-2" cx="38.5" cy="417" r="7"/>
    <path class="cls-1" d="M89.6,410.3c0-7.5,6.3-13.5,13.9-13.3,7.3.1,13,5.5,13,12.3,0,7.8-6.6,14.6-14.1,14.6-6.4,0-12.8-6.9-12.7-13.6Z"/>
    <path class="cls-1" d="M195.1,417.5c-7.1,2.6-15,2.6-22.2.3s-4.1-1.4-6-2.4c-8.3-4.4-16.2-9.6-24.4-14.2-3.3-1.8-4.1-4.1-1.6-6.6,6.3-6.4,7.6-14.9,10.8-22.7,3.3-8.2,7.2-16.3,11.6-24,8.5-14.9,21.9-17.6,38.4-14.5,20.8,3.9,29.4,26.7,27.9,42.1-1.9,18.7-16.5,35.6-34.4,42.1Z"/>
    <path class="cls-1" d="M104.2,464.6c-3.3-1.2-13.4-6.3-14.4-6.8-13.6-7-17.1-8.7-27-14.6-1-.6-9.3-4.8-8.2-7.5.7-1.2,6.1,2,8.7,3.2,14.5,6.6,28.7,13.6,43,20.6,3,1.5,5.1.9,4.1,4.6-.8,2.8-2.1,2-6.2.5Z"/>
    <path class="cls-1" d="M111,447.6c-3.4-.5-14.4-3.2-15.5-3.5-14.8-3.8-18.6-4.7-29.6-8.4-1.1-.4-10.1-2.7-9.7-5.5.4-1.4,6.4.6,9.2,1.2,15.6,3.2,31,7,46.5,10.7,3.2.8,5.2-.3,5,3.6-.2,2.9-1.6,2.5-5.9,1.8Z"/>
    <path class="cls-1" d="M204.6,562.2c-16.5-.6-33.4,3.3-49.5,7.2s-30.9,9.5-45.2,17c-26.1,13.6-49.5,34-62.7,60.7-3.7,7.5-6.6,15.3-8.1,23.6s-2.8,16.9,0,24.5,4.4,2.6,5.5,0c3.3-8.1,4.2-17,7.3-25.2s6.9-16.4,11.7-23.8c9.4-14.6,22.3-26.7,36.8-36.1,15.2-9.8,31.9-17.1,49.3-22,19.2-5.5,39.4-7.2,57.5-15.7s2.2-9.9-2.7-10.1h0Z"/>
  </g>
  <g id="Layer_2" data-name="Layer 2">
    <path class="cls-1" d="M834.6,442.4c-27.9-67.1-76.4-115.4-141.2-147.5-15.9-7.9-32.1-15.3-48.2-23.1-21.5-10.4-37.7-26-49.9-46.7-13.9-23.5-29.6-45.9-49.3-65.1-23.2-22.6-48.9-42.2-76.1-59.7-16.7-10.7-34.6-19.3-54.1-23.8-14.3-3.3-20.7,0-25.2,13.7-2.2,6.9-3.3,14.2-4.1,21.4-.9,8.3-1,16.6-1.5,24.9-.3,3.8-2.9,4.8-6.3,4.9-3.5.1-4.7-2.1-5.2-4.9-.4-2.6-.3-5.2-.3-8s-1.9-3.6-3.9-3.3-5.1.7-7.1,1.4c-38,13.6-65,38.5-77.7,77.3-4.4,13.4-10,25.7-19,36.4-1.1,1.3-1.9,2.7-2.9,4-6.8,8.8-6.5,18.1-1.7,27.6,3.6,7,6.5,14.3,10.6,20.9,4.8,7.7,9.8,15.5,15.9,22.2,9.1,9.9,20.4,16.8,34.1,18,8.6.8,17.3.3,25.9.5,2.4,0,5.6-.2,7.1,1.2,7.5,7.1,65,73.6,76.5,95.3,13.3,24.9,15.5,51.8,16.2,79.6.4,17,.7,34,1.1,51,0,2.5,1.2,4.9,3.4,6.6s5.6,0,5.5-2.7,0,0,0,0c-.3-11.3-1.5-22.6-1.3-34,.4-19.7.7-40.1,6.3-59.7,6.9-24.3,18.1-46.2,35.5-64.5,29.7-31.4,66.5-49.6,109.2-55.1,19.3-2.5,38.6-1.6,57.1,5.6,4.7,1.8,8.9,5,12.9,8.1,1.2.9,1.9,3.9,1.3,5.3-.6,1.3-3,2.2-4.8,2.5-2.3.3-4.6-.1-6.9-.4-11-1.4-22-3.7-33.1-4.3-22.6-1.1-43.8,5.5-64.3,14-45.7,19.1-75.4,52.3-87.4,100.8-6.7,27.3-6.8,55.1-7.5,82.9-.1,4.7.3,9.4,1.3,14,4,18.6,11.4,36.1,19.1,53.4,2.6,5.9,7.4,8.9,13.8,10.2,9.6,2,19,4.9,28.6,7,13.1,2.9,26.3,6.2,39.6,8,33.9,4.7,67.2,2.5,98.9-11.6,25.5-11.2,47.5-26.2,58.6-53.3.6-1.5,1.6-3,2.7-4.2,3.1-3.5,8.9-3.3,11,.9,1.2,2.3,1.8,5.7,1,8-2.2,6.6-4.2,13.5-8,19.2-11.2,16.5-26,29.4-43.8,38.5-46,23.5-94.7,26.4-144.5,17.1-21.2-4-42-9.7-62.9-15.3-25.8-7-51.8-14.5-77-23.2-25.3-8.7-29.1-11.3-43.6-17-3.9-1.5-37.8-12.7-62.1-16.9s-40.9-4.3-56.4-4.1c-30.2.3-58.8,1.7-87.6,10.7-28,8.7-49.2,23-65.3,46.8-10.2,15.1-15,33.4-12.8,52,4.5,38.8,30.4,61,66.2,71.8,21.8,6.6,44.3,5.5,66.1-1.1,16.7-5.1,31.5-13.6,42.8-27.2,4.8-5.7,8.3-12.1,9-19.6.7-7.5-4-11.8-11.1-9.1-3.6,1.4-7.2,4.9-9.2,8.3-5.8,9.8-13.7,16.9-24,21.8-16.5,8-34.1,9.7-52,9-28.7-1-60.1-20.9-64.1-54.3-1.5-12.3-1.3-25.2,5.8-36.1,18.5-28.4,45.1-42.8,78.3-46.6,16.9-1.9,33.9-3.6,50.8-3.5,19.1,0,38.4.6,57.2,3.8s58.6,15.7,67,19.3c7.6,3.3,65.1,27.6,86.7,35.2,13.4,4.6,26.9,9.9,40.5,13.8,21.1,6,75.4,24.4,115.1,30.1,26.6,3.8,48.7,4.9,73.8,2.4,33.8-3.3,64.4-14.3,91.2-35.5,24.2-19.1,43-42.5,57.5-69.5,8.4-15.7,12.3-32.9,15.6-50.3,8.1-43.5,3.2-85.9-13.5-126.4ZM340.8,224.8c-4.9,4.5-10.9,3.6-14.2-2.1-2.9-5-2.4-14.5,1-19.1,2.7-3.7,8.7-5.8,12.4-4.5,4,1.4,6.5,5.7,6.5,13.2-.1,3.6-1.5,8.6-5.7,12.5ZM415.2,99.5c24.8,16.7,43.9,52.5,41.2,83.7-.2,2.6-3.1,4-5.3,2.6-8.7-5.5-17.4-10.9-25.8-16.7-11.7-8.1-16.1-20.4-17.7-33.8-.9-7.4-.8-14.9-1.2-22.4-.2-4.7,1.3-8.8,4.1-12.5s3.2-1.8,4.7-.8Z"/>
    <path class="cls-2" d="M412.6,97.9c27.6,16.8,48.9,57.4,43.1,90.9-10.2-6.5-20.5-12.8-30.4-19.7-11.7-8.1-16.1-20.4-17.7-33.8-.9-7.4-.8-14.9-1.2-22.4-.2-5.8,2.1-10.6,6.1-15Z"/>
    <path class="cls-2" d="M464.7,270.2c4.7.5,9.4,2.2,13.9,3.9,2.2.8,4.3,2.5,5.9,4.3,1,1.2,1.9,3.6,1.3,4.7-.8,1.4-3.1,3-4.6,2.9-6.1-.4-12.1-1.6-18.2-2.3-16.6-2-33.3-4.2-50-5.6-13.7-1.2-27.6-1.4-41.3-2.2-1.9-.1-4.4-.3-5.6-1.5-1.3-1.3-2.2-3.8-2-5.6.2-1.4,2.3-3.5,3.7-3.7,5.6-.8,12.6-.5,16.8-.5,20.1.1,53.4,2.9,80,5.5Z"/>
    <path class="cls-2" d="M402.8,248.5c-11.5,1.6-23,3.5-34.5,5.1-3.3.5-6.6.1-7.8-3.7-1.3-4.2,2.1-6,5-6.7,11.3-2.8,22.6-5.7,34-7.7,20.1-3.5,40.3-7.9,60.9-6.5,5.4.4,10.9,1.4,16.1,3.1,2.1.7,4.9,2.8,4.9,6-1,2.8-4.4,3.2-6.7,3.7-1.5.3-11.5,0-23.9,1.1-16.2,1.3-36.5,4.1-47.9,5.6Z"/>
    <path class="cls-2" d="M365.7,287.3c1.3-.4,2.6-.5,4-.3,4.6.7,16.3,2.9,23,5.4,16.1,6.1,32.1,12.7,47.9,19.5,3.9,1.7,7.3,4.6,10.5,7.4,2.4,2.2,3.5,5.3,1.4,8.6-2.2,3.4-5.3,2.4-8,1.1-10.2-4.9-20.1-10.4-30.5-14.7-14.1-5.8-28.6-10.8-42.8-16.2-2.1-.8-4.7-1.6-6-3.3-1.2-1.6-1.5-4.3-1.2-6.4,0-.5.8-.9,1.6-1.2Z"/>
    <path class="cls-2" d="M346.6,212.2c-.1,3.6-1.5,8.6-5.7,12.5-4.9,4.5-10.9,3.6-14.2-2.1-2.9-5-2.4-14.5,1-19.1,2.7-3.7,8.7-5.8,12.4-4.5,4,1.4,6.5,5.7,6.5,13.2Z"/>
    <path class="cls-1" d="M326.1,131.8c-5.3-13.4-10.5-25.9-15.1-38.7-1.9-5.3,1.3-9.4,7.1-9,5.6.4,11.3,1.2,16.5,3,11.4,4.1,22.5,8.8,33.5,13.8,4.4,2,5.8,7.9,3.6,11.9-.6,1-2.3,1.8-3.6,2.1-14.8,2.9-28.9,7.5-42,17Z"/>
  </g>
</svg>